<?xml version="1.0" encoding="UTF-8" standalone="no"?>
<!DOCTYPE svg PUBLIC "-//W3C//DTD SVG 1.1//EN"
 "http://www.w3.org/Graphics/SVG/1.1/DTD/svg11.dtd">
<!-- Generated by graphviz version 2.43.0 (0)
 -->
<!-- Title: G Pages: 1 -->
<svg width="404pt" height="260pt"
 viewBox="0.00 0.00 404.00 260.00" xmlns="http://www.w3.org/2000/svg" xmlns:xlink="http://www.w3.org/1999/xlink">
<g id="graph0" class="graph" transform="scale(1 1) rotate(0) translate(4 256)">
<title>G</title>
<polygon fill="white" stroke="transparent" points="-4,4 -4,-256 400,-256 400,4 -4,4"/>
<!-- 20 -->
<g id="node1" class="node">
<title>20</title>
<ellipse fill="none" stroke="red" cx="297" cy="-90" rx="27" ry="18"/>
<text text-anchor="middle" x="297" y="-87.5" font-family="JetBrainsMono Nerd Font" font-size="10.00">5</text>
</g>
<!-- 12 -->
<g id="node12" class="node">
<title>12</title>
<ellipse fill="none" stroke="black" cx="315" cy="-18" rx="27" ry="18"/>
<text text-anchor="middle" x="315" y="-15.5" font-family="JetBrainsMono Nerd Font" font-size="10.00">12</text>
</g>
<!-- 20&#45;&gt;12 -->
<g id="edge11" class="edge">
<title>20&#45;&gt;12</title>
<path fill="none" stroke="black" d="M301.36,-72.05C303.39,-64.14 305.86,-54.54 308.14,-45.69"/>
<polygon fill="black" stroke="black" points="311.58,-46.35 310.68,-35.79 304.8,-44.6 311.58,-46.35"/>
</g>
<!-- 6 -->
<g id="node2" class="node">
<title>6</title>
<ellipse fill="none" stroke="blue" cx="297" cy="-162" rx="27" ry="18"/>
<text text-anchor="middle" x="297" y="-159.5" font-family="JetBrainsMono Nerd Font" font-size="10.00">6</text>
</g>
<!-- 6&#45;&gt;20 -->
<g id="edge5" class="edge">
<title>6&#45;&gt;20</title>
<path fill="none" stroke="black" d="M297,-143.7C297,-135.98 297,-126.71 297,-118.11"/>
<polygon fill="black" stroke="black" points="300.5,-118.1 297,-108.1 293.5,-118.1 300.5,-118.1"/>
</g>
<!-- 8 -->
<g id="node7" class="node">
<title>8</title>
<ellipse fill="none" stroke="black" cx="369" cy="-90" rx="27" ry="18"/>
<text text-anchor="middle" x="369" y="-87.5" font-family="JetBrainsMono Nerd Font" font-size="10.00">8</text>
</g>
<!-- 6&#45;&gt;8 -->
<g id="edge6" class="edge">
<title>6&#45;&gt;8</title>
<path fill="none" stroke="black" d="M311.57,-146.83C321.75,-136.94 335.52,-123.55 347.03,-112.36"/>
<polygon fill="black" stroke="black" points="349.47,-114.87 354.2,-105.38 344.59,-109.85 349.47,-114.87"/>
</g>
<!-- 2 -->
<g id="node3" class="node">
<title>2</title>
<ellipse fill="none" stroke="black" cx="225" cy="-234" rx="27" ry="18"/>
<text text-anchor="middle" x="225" y="-231.5" font-family="JetBrainsMono Nerd Font" font-size="10.00">2</text>
</g>
<!-- 2&#45;&gt;6 -->
<g id="edge2" class="edge">
<title>2&#45;&gt;6</title>
<path fill="none" stroke="black" d="M239.57,-218.83C249.75,-208.94 263.52,-195.55 275.03,-184.36"/>
<polygon fill="black" stroke="black" points="277.47,-186.87 282.2,-177.38 272.59,-181.85 277.47,-186.87"/>
</g>
<!-- 3 -->
<g id="node4" class="node">
<title>3</title>
<ellipse fill="none" stroke="black" cx="189" cy="-162" rx="27" ry="18"/>
<text text-anchor="middle" x="189" y="-159.5" font-family="JetBrainsMono Nerd Font" font-size="10.00">3</text>
</g>
<!-- 2&#45;&gt;3 -->
<g id="edge1" class="edge">
<title>2&#45;&gt;3</title>
<path fill="none" stroke="black" d="M216.65,-216.76C212.29,-208.28 206.85,-197.71 201.96,-188.2"/>
<polygon fill="black" stroke="black" points="204.99,-186.44 197.3,-179.15 198.77,-189.64 204.99,-186.44"/>
</g>
<!-- 5 -->
<g id="node5" class="node">
<title>5</title>
<ellipse fill="none" stroke="black" cx="99" cy="-90" rx="27" ry="18"/>
<text text-anchor="middle" x="99" y="-87.5" font-family="JetBrainsMono Nerd Font" font-size="10.00">5</text>
</g>
<!-- 3&#45;&gt;5 -->
<g id="edge3" class="edge">
<title>3&#45;&gt;5</title>
<path fill="none" stroke="black" d="M172.07,-147.83C158.5,-137.27 139.24,-122.3 123.91,-110.37"/>
<polygon fill="black" stroke="black" points="125.89,-107.48 115.85,-104.11 121.6,-113.01 125.89,-107.48"/>
</g>
<!-- 4 -->
<g id="node6" class="node">
<title>4</title>
<ellipse fill="none" stroke="black" cx="189" cy="-90" rx="27" ry="18"/>
<text text-anchor="middle" x="189" y="-87.5" font-family="JetBrainsMono Nerd Font" font-size="10.00">4</text>
</g>
<!-- 3&#45;&gt;4 -->
<g id="edge4" class="edge">
<title>3&#45;&gt;4</title>
<path fill="none" stroke="black" d="M189,-143.7C189,-135.98 189,-126.71 189,-118.11"/>
<polygon fill="black" stroke="black" points="192.5,-118.1 189,-108.1 185.5,-118.1 192.5,-118.1"/>
</g>
<!-- 7 -->
<g id="node8" class="node">
<title>7</title>
<ellipse fill="none" stroke="black" cx="27" cy="-18" rx="27" ry="18"/>
<text text-anchor="middle" x="27" y="-15.5" font-family="JetBrainsMono Nerd Font" font-size="10.00">7</text>
</g>
<!-- 5&#45;&gt;7 -->
<g id="edge7" class="edge">
<title>5&#45;&gt;7</title>
<path fill="none" stroke="black" d="M84.43,-74.83C74.25,-64.94 60.48,-51.55 48.97,-40.36"/>
<polygon fill="black" stroke="black" points="51.41,-37.85 41.8,-33.38 46.53,-42.87 51.41,-37.85"/>
</g>
<!-- 9 -->
<g id="node9" class="node">
<title>9</title>
<ellipse fill="none" stroke="black" cx="99" cy="-18" rx="27" ry="18"/>
<text text-anchor="middle" x="99" y="-15.5" font-family="JetBrainsMono Nerd Font" font-size="10.00">9</text>
</g>
<!-- 5&#45;&gt;9 -->
<g id="edge8" class="edge">
<title>5&#45;&gt;9</title>
<path fill="none" stroke="black" d="M99,-71.7C99,-63.98 99,-54.71 99,-46.11"/>
<polygon fill="black" stroke="black" points="102.5,-46.1 99,-36.1 95.5,-46.1 102.5,-46.1"/>
</g>
<!-- 19 -->
<g id="node10" class="node">
<title>19</title>
<ellipse fill="none" stroke="black" cx="171" cy="-18" rx="27" ry="18"/>
<text text-anchor="middle" x="171" y="-15.5" font-family="JetBrainsMono Nerd Font" font-size="10.00">19</text>
</g>
<!-- 4&#45;&gt;19 -->
<g id="edge9" class="edge">
<title>4&#45;&gt;19</title>
<path fill="none" stroke="black" d="M184.64,-72.05C182.61,-64.14 180.14,-54.54 177.86,-45.69"/>
<polygon fill="black" stroke="black" points="181.2,-44.6 175.32,-35.79 174.42,-46.35 181.2,-44.6"/>
</g>
<!-- 42 -->
<g id="node11" class="node">
<title>42</title>
<ellipse fill="none" stroke="black" cx="243" cy="-18" rx="27" ry="18"/>
<text text-anchor="middle" x="243" y="-15.5" font-family="JetBrainsMono Nerd Font" font-size="10.00">42</text>
</g>
<!-- 4&#45;&gt;42 -->
<g id="edge10" class="edge">
<title>4&#45;&gt;42</title>
<path fill="none" stroke="black" d="M200.98,-73.46C207.98,-64.4 216.94,-52.79 224.79,-42.61"/>
<polygon fill="black" stroke="black" points="227.71,-44.55 231.05,-34.49 222.17,-40.27 227.71,-44.55"/>
</g>
</g>
</svg>
