<?xml version="1.0" encoding="UTF-8" standalone="no"?>
<!DOCTYPE svg PUBLIC "-//W3C//DTD SVG 1.1//EN"
 "http://www.w3.org/Graphics/SVG/1.1/DTD/svg11.dtd">
<!-- Generated by graphviz version 2.43.0 (0)
 -->
<!-- Title: G Pages: 1 -->
<svg width="404pt" height="260pt"
 viewBox="0.00 0.00 404.00 260.00" xmlns="http://www.w3.org/2000/svg" xmlns:xlink="http://www.w3.org/1999/xlink">
<g id="graph0" class="graph" transform="scale(1 1) rotate(0) translate(4 256)">
<title>G</title>
<polygon fill="white" stroke="transparent" points="-4,4 -4,-256 400,-256 400,4 -4,4"/>
<!-- 20 -->
<g id="node1" class="node">
<title>20</title>
<ellipse fill="none" stroke="red" cx="315" cy="-18" rx="27" ry="18"/>
<text text-anchor="middle" x="315" y="-15.5" font-family="JetBrainsMono Nerd Font" font-size="10.00">5</text>
</g>
<!-- 12 -->
<g id="node2" class="node">
<title>12</title>
<ellipse fill="none" stroke="blue" cx="297" cy="-90" rx="27" ry="18"/>
<text text-anchor="middle" x="297" y="-87.5" font-family="JetBrainsMono Nerd Font" font-size="10.00">12</text>
</g>
<!-- 12&#45;&#45;20 -->
<g id="edge11" class="edge">
<title>12&#45;&#45;20</title>
<path fill="none" stroke="black" d="M301.36,-72.05C304.19,-61.05 307.86,-46.76 310.68,-35.79"/>
</g>
<!-- 2 -->
<g id="node3" class="node">
<title>2</title>
<ellipse fill="none" stroke="black" cx="225" cy="-234" rx="27" ry="18"/>
<text text-anchor="middle" x="225" y="-231.5" font-family="JetBrainsMono Nerd Font" font-size="10.00">2</text>
</g>
<!-- 3 -->
<g id="node4" class="node">
<title>3</title>
<ellipse fill="none" stroke="black" cx="189" cy="-162" rx="27" ry="18"/>
<text text-anchor="middle" x="189" y="-159.5" font-family="JetBrainsMono Nerd Font" font-size="10.00">3</text>
</g>
<!-- 2&#45;&#45;3 -->
<g id="edge1" class="edge">
<title>2&#45;&#45;3</title>
<path fill="none" stroke="black" d="M216.65,-216.76C210.83,-205.46 203.11,-190.44 197.3,-179.15"/>
</g>
<!-- 6 -->
<g id="node5" class="node">
<title>6</title>
<ellipse fill="none" stroke="black" cx="297" cy="-162" rx="27" ry="18"/>
<text text-anchor="middle" x="297" y="-159.5" font-family="JetBrainsMono Nerd Font" font-size="10.00">6</text>
</g>
<!-- 2&#45;&#45;6 -->
<g id="edge2" class="edge">
<title>2&#45;&#45;6</title>
<path fill="none" stroke="black" d="M239.57,-218.83C251.98,-206.77 269.73,-189.51 282.2,-177.38"/>
</g>
<!-- 5 -->
<g id="node6" class="node">
<title>5</title>
<ellipse fill="none" stroke="black" cx="99" cy="-90" rx="27" ry="18"/>
<text text-anchor="middle" x="99" y="-87.5" font-family="JetBrainsMono Nerd Font" font-size="10.00">5</text>
</g>
<!-- 3&#45;&#45;5 -->
<g id="edge3" class="edge">
<title>3&#45;&#45;5</title>
<path fill="none" stroke="black" d="M172.07,-147.83C155.98,-135.32 131.92,-116.6 115.85,-104.11"/>
</g>
<!-- 4 -->
<g id="node7" class="node">
<title>4</title>
<ellipse fill="none" stroke="black" cx="189" cy="-90" rx="27" ry="18"/>
<text text-anchor="middle" x="189" y="-87.5" font-family="JetBrainsMono Nerd Font" font-size="10.00">4</text>
</g>
<!-- 3&#45;&#45;4 -->
<g id="edge4" class="edge">
<title>3&#45;&#45;4</title>
<path fill="none" stroke="black" d="M189,-143.7C189,-132.85 189,-118.92 189,-108.1"/>
</g>
<!-- 6&#45;&#45;12 -->
<g id="edge5" class="edge">
<title>6&#45;&#45;12</title>
<path fill="none" stroke="black" d="M297,-143.7C297,-132.85 297,-118.92 297,-108.1"/>
</g>
<!-- 8 -->
<g id="node8" class="node">
<title>8</title>
<ellipse fill="none" stroke="black" cx="369" cy="-90" rx="27" ry="18"/>
<text text-anchor="middle" x="369" y="-87.5" font-family="JetBrainsMono Nerd Font" font-size="10.00">8</text>
</g>
<!-- 6&#45;&#45;8 -->
<g id="edge6" class="edge">
<title>6&#45;&#45;8</title>
<path fill="none" stroke="black" d="M311.57,-146.83C323.98,-134.77 341.73,-117.51 354.2,-105.38"/>
</g>
<!-- 7 -->
<g id="node9" class="node">
<title>7</title>
<ellipse fill="none" stroke="black" cx="27" cy="-18" rx="27" ry="18"/>
<text text-anchor="middle" x="27" y="-15.5" font-family="JetBrainsMono Nerd Font" font-size="10.00">7</text>
</g>
<!-- 5&#45;&#45;7 -->
<g id="edge7" class="edge">
<title>5&#45;&#45;7</title>
<path fill="none" stroke="black" d="M84.43,-74.83C72.02,-62.77 54.27,-45.51 41.8,-33.38"/>
</g>
<!-- 9 -->
<g id="node10" class="node">
<title>9</title>
<ellipse fill="none" stroke="black" cx="99" cy="-18" rx="27" ry="18"/>
<text text-anchor="middle" x="99" y="-15.5" font-family="JetBrainsMono Nerd Font" font-size="10.00">9</text>
</g>
<!-- 5&#45;&#45;9 -->
<g id="edge8" class="edge">
<title>5&#45;&#45;9</title>
<path fill="none" stroke="black" d="M99,-71.7C99,-60.85 99,-46.92 99,-36.1"/>
</g>
<!-- 19 -->
<g id="node11" class="node">
<title>19</title>
<ellipse fill="none" stroke="black" cx="171" cy="-18" rx="27" ry="18"/>
<text text-anchor="middle" x="171" y="-15.5" font-family="JetBrainsMono Nerd Font" font-size="10.00">19</text>
</g>
<!-- 4&#45;&#45;19 -->
<g id="edge9" class="edge">
<title>4&#45;&#45;19</title>
<path fill="none" stroke="black" d="M184.64,-72.05C181.81,-61.05 178.14,-46.76 175.32,-35.79"/>
</g>
<!-- 42 -->
<g id="node12" class="node">
<title>42</title>
<ellipse fill="none" stroke="black" cx="243" cy="-18" rx="27" ry="18"/>
<text text-anchor="middle" x="243" y="-15.5" font-family="JetBrainsMono Nerd Font" font-size="10.00">42</text>
</g>
<!-- 4&#45;&#45;42 -->
<g id="edge10" class="edge">
<title>4&#45;&#45;42</title>
<path fill="none" stroke="black" d="M200.98,-73.46C209.93,-61.86 222.11,-46.08 231.05,-34.49"/>
</g>
</g>
</svg>
