<?xml version="1.0" encoding="UTF-8" standalone="no"?>
<!DOCTYPE svg PUBLIC "-//W3C//DTD SVG 1.1//EN"
 "http://www.w3.org/Graphics/SVG/1.1/DTD/svg11.dtd">
<!-- Generated by graphviz version 2.43.0 (0)
 -->
<!-- Title: G Pages: 1 -->
<svg width="278pt" height="260pt"
 viewBox="0.00 0.00 278.00 260.00" xmlns="http://www.w3.org/2000/svg" xmlns:xlink="http://www.w3.org/1999/xlink">
<g id="graph0" class="graph" transform="scale(1 1) rotate(0) translate(4 256)">
<title>G</title>
<polygon fill="white" stroke="transparent" points="-4,4 -4,-256 274,-256 274,4 -4,4"/>
<!-- 42 -->
<g id="node1" class="node">
<title>42</title>
<ellipse fill="none" stroke="red" cx="27" cy="-18" rx="27" ry="18"/>
<text text-anchor="middle" x="27" y="-15.5" font-family="JetBrainsMono Nerd Font" font-size="10.00">42</text>
</g>
<!-- 19 -->
<g id="node2" class="node">
<title>19</title>
<ellipse fill="none" stroke="blue" cx="27" cy="-90" rx="27" ry="18"/>
<text text-anchor="middle" x="27" y="-87.5" font-family="JetBrainsMono Nerd Font" font-size="10.00">19</text>
</g>
<!-- 19&#45;&#45;42 -->
<g id="edge9" class="edge">
<title>19&#45;&#45;42</title>
<path fill="none" stroke="black" d="M27,-71.7C27,-60.85 27,-46.92 27,-36.1"/>
</g>
<!-- 3 -->
<g id="node3" class="node">
<title>3</title>
<ellipse fill="none" stroke="black" cx="135" cy="-234" rx="27" ry="18"/>
<text text-anchor="middle" x="135" y="-231.5" font-family="JetBrainsMono Nerd Font" font-size="10.00">3</text>
</g>
<!-- 4 -->
<g id="node4" class="node">
<title>4</title>
<ellipse fill="none" stroke="black" cx="99" cy="-162" rx="27" ry="18"/>
<text text-anchor="middle" x="99" y="-159.5" font-family="JetBrainsMono Nerd Font" font-size="10.00">4</text>
</g>
<!-- 3&#45;&#45;4 -->
<g id="edge1" class="edge">
<title>3&#45;&#45;4</title>
<path fill="none" stroke="black" d="M126.65,-216.76C120.83,-205.46 113.11,-190.44 107.3,-179.15"/>
</g>
<!-- 6 -->
<g id="node5" class="node">
<title>6</title>
<ellipse fill="none" stroke="black" cx="171" cy="-162" rx="27" ry="18"/>
<text text-anchor="middle" x="171" y="-159.5" font-family="JetBrainsMono Nerd Font" font-size="10.00">6</text>
</g>
<!-- 3&#45;&#45;6 -->
<g id="edge2" class="edge">
<title>3&#45;&#45;6</title>
<path fill="none" stroke="black" d="M143.35,-216.76C149.17,-205.46 156.89,-190.44 162.7,-179.15"/>
</g>
<!-- 4&#45;&#45;19 -->
<g id="edge4" class="edge">
<title>4&#45;&#45;19</title>
<path fill="none" stroke="black" d="M84.43,-146.83C72.02,-134.77 54.27,-117.51 41.8,-105.38"/>
</g>
<!-- 5 -->
<g id="node6" class="node">
<title>5</title>
<ellipse fill="none" stroke="black" cx="99" cy="-90" rx="27" ry="18"/>
<text text-anchor="middle" x="99" y="-87.5" font-family="JetBrainsMono Nerd Font" font-size="10.00">5</text>
</g>
<!-- 4&#45;&#45;5 -->
<g id="edge3" class="edge">
<title>4&#45;&#45;5</title>
<path fill="none" stroke="black" d="M99,-143.7C99,-132.85 99,-118.92 99,-108.1"/>
</g>
<!-- 12 -->
<g id="node7" class="node">
<title>12</title>
<ellipse fill="none" stroke="black" cx="171" cy="-90" rx="27" ry="18"/>
<text text-anchor="middle" x="171" y="-87.5" font-family="JetBrainsMono Nerd Font" font-size="10.00">12</text>
</g>
<!-- 6&#45;&#45;12 -->
<g id="edge5" class="edge">
<title>6&#45;&#45;12</title>
<path fill="none" stroke="black" d="M171,-143.7C171,-132.85 171,-118.92 171,-108.1"/>
</g>
<!-- 8 -->
<g id="node8" class="node">
<title>8</title>
<ellipse fill="none" stroke="black" cx="243" cy="-90" rx="27" ry="18"/>
<text text-anchor="middle" x="243" y="-87.5" font-family="JetBrainsMono Nerd Font" font-size="10.00">8</text>
</g>
<!-- 6&#45;&#45;8 -->
<g id="edge6" class="edge">
<title>6&#45;&#45;8</title>
<path fill="none" stroke="black" d="M185.57,-146.83C197.98,-134.77 215.73,-117.51 228.2,-105.38"/>
</g>
<!-- 7 -->
<g id="node9" class="node">
<title>7</title>
<ellipse fill="none" stroke="black" cx="99" cy="-18" rx="27" ry="18"/>
<text text-anchor="middle" x="99" y="-15.5" font-family="JetBrainsMono Nerd Font" font-size="10.00">7</text>
</g>
<!-- 5&#45;&#45;7 -->
<g id="edge7" class="edge">
<title>5&#45;&#45;7</title>
<path fill="none" stroke="black" d="M99,-71.7C99,-60.85 99,-46.92 99,-36.1"/>
</g>
<!-- 9 -->
<g id="node10" class="node">
<title>9</title>
<ellipse fill="none" stroke="black" cx="171" cy="-18" rx="27" ry="18"/>
<text text-anchor="middle" x="171" y="-15.5" font-family="JetBrainsMono Nerd Font" font-size="10.00">9</text>
</g>
<!-- 5&#45;&#45;9 -->
<g id="edge8" class="edge">
<title>5&#45;&#45;9</title>
<path fill="none" stroke="black" d="M113.57,-74.83C125.98,-62.77 143.73,-45.51 156.2,-33.38"/>
</g>
</g>
</svg>
